<?xml version="1.0" encoding="UTF-8"?>
<!DOCTYPE svg PUBLIC "-//W3C//DTD SVG 1.1//EN" "http://www.w3.org/Graphics/SVG/1.1/DTD/svg11.dtd">
<!-- Creator: CorelDRAW -->
<svg xmlns="http://www.w3.org/2000/svg" xml:space="preserve" width="1.01385in" height="1.06069in" version="1.1" style="shape-rendering:geometricPrecision; text-rendering:geometricPrecision; image-rendering:optimizeQuality; fill-rule:evenodd; clip-rule:evenodd"
viewBox="0 0 948.29 992.1"
 xmlns:xlink="http://www.w3.org/1999/xlink"
 xmlns:xodm="http://www.corel.com/coreldraw/odm/2003">
 <defs>
  <style type="text/css">
   <![CDATA[
    .fil4 {fill:#FEFEFE;fill-rule:nonzero}
    .fil1 {fill:#FEFEFE;fill-rule:nonzero}
    .fil2 {fill:#E95229;fill-rule:nonzero}
    .fil3 {fill:#E5097F;fill-rule:nonzero}
    .fil0 {fill:white;fill-rule:nonzero}
   ]]>
  </style>
 </defs>
 <g id="Layer_x0020_1">
  <metadata id="CorelCorpID_0Corel-Layer"/>
  <g id="_2389587091872">
   <path class="fil0" d="M640.9 138.09c-3.35,0 -6.78,0.15 -10.13,0.62 -46.88,5.45 -80.45,48.05 -74.92,94.94 4.98,43.07 41.51,75.54 84.81,75.54 3.35,0 6.78,-0.23 10.13,-0.62 46.81,-5.53 80.45,-48.13 74.92,-94.94 -5.06,-43.07 -41.51,-75.54 -84.81,-75.54zm-0.24 217.45c-66.82,0 -123.05,-50.08 -130.92,-116.51 -2.03,-17.68 -0.62,-35.2 4.28,-52.18 4.83,-16.35 12.62,-31.46 23.21,-44.94 10.59,-13.47 23.52,-24.53 38.32,-32.94 15.34,-8.8 32.09,-14.25 49.77,-16.36 5.14,-0.62 10.44,-0.94 15.58,-0.94 66.74,0 123.05,50.16 130.84,116.51 2.1,17.68 0.7,35.28 -4.29,52.26 -4.75,16.36 -12.54,31.47 -23.13,44.94 -10.59,13.4 -23.52,24.45 -38.32,32.94 -15.42,8.72 -32.09,14.18 -49.77,16.28 -5.22,0.62 -10.44,0.94 -15.58,0.94z"/>
   <path class="fil1" d="M470.33 583.97c20.4,49.3 68.3,103.74 139.57,158.57 43.3,33.26 84.5,58.41 105.45,70.56 12.23,-11.68 32.48,-31.85 55.14,-57.24 52.49,-59.04 117.45,-146.03 128.51,-225.01l0.15 -0.78 0.15 -0.86c2.73,-12.77 3.35,-25.86 1.79,-38.94 -0.08,-0.94 -0.24,-1.95 -0.39,-2.88 -8.26,-58.41 -58.96,-102.57 -117.99,-102.57 -4.67,0 -9.42,0.31 -14.1,0.86 -32.79,3.89 -61.76,20.56 -81.54,46.88l-14.57 19.47 -18.77 -15.5c-21.34,-17.76 -48.36,-27.49 -76.01,-27.49 -4.67,0 -9.5,0.23 -14.18,0.78 -31.62,3.74 -59.97,19.55 -79.67,44.63 -19.78,25 -28.58,56.23 -24.85,87.85 0.94,8.33 2.8,16.59 5.45,24.45l5.84 17.22zm251.8 285.67l-14.25 -7.56c-2.49,-1.32 -60.98,-32.71 -125.63,-82.32 -38.32,-29.44 -70.72,-59.11 -96.34,-88.32 -33.1,-37.7 -55.22,-74.93 -65.89,-110.67l-6.15 -26.56c-0.31,-2.18 -0.62,-4.28 -0.86,-6.46 -2.65,-22.2 -0.85,-44.24 5.38,-65.58 5.92,-20.56 15.73,-39.56 29.05,-56.46 13.32,-16.9 29.6,-30.84 48.21,-41.43 19.24,-10.98 40.34,-17.84 62.54,-20.49 6.47,-0.78 13.01,-1.17 19.55,-1.17 30.76,0 61.06,8.72 87.15,24.92 10.05,-10.2 21.49,-19.08 33.96,-26.4 19.78,-11.53 41.43,-18.77 64.33,-21.49 6.54,-0.78 13.08,-1.17 19.55,-1.17 39.64,0 78.11,14.33 108.18,40.34 30.38,26.25 50.16,62.46 55.77,102.11 0.15,1.33 0.31,2.57 0.46,3.9 2.11,17.91 1.33,35.83 -2.33,53.35 -5.92,41.05 -24.22,86.76 -54.36,135.67 -22.35,36.37 -51.09,74.3 -85.28,112.77 -38.47,43.22 -69.63,71.11 -70.95,72.27l-12.07 10.75z"/>
   <path class="fil2" d="M493.85 626.57c-9.58,12.3 -20.09,24.38 -31.15,36.06 7.01,9.58 14.72,19.16 23.21,28.82 3.35,3.81 6.78,7.55 10.36,11.37 0.23,-0.24 0.54,-0.54 0.78,-0.86 10.9,-11.37 20.95,-22.67 30.22,-33.88 -12.93,-14.1 -24.07,-27.96 -33.41,-41.51zm67.14 -256.7c-1.72,-1.95 -3.43,-3.89 -5.14,-5.76 -20.25,2.65 -39.49,8.88 -57.25,18.54 13.01,9.81 24.22,21.81 33.02,35.51 10.05,-4.21 20.79,-7.01 31.93,-8.33 4.68,-0.54 9.5,-0.78 14.18,-0.78 2.96,0 5.92,0.08 8.8,0.31 -6.78,-14.17 -15.34,-27.34 -25.54,-39.49z"/>
   <path class="fil3" d="M329.13 52.1c-49.69,0 -90.81,37.46 -95.56,87.07 -2.42,25.54 5.3,50.54 21.65,70.33 16.36,19.78 39.41,32.01 64.96,34.5 3.12,0.23 6.23,0.39 9.26,0.39 49.77,0 90.89,-37.38 95.57,-86.99 5.06,-52.81 -33.8,-99.77 -86.61,-104.83 -3.04,-0.31 -6.15,-0.47 -9.27,-0.47zm0.31 244.4c-4.67,0 -9.42,-0.24 -14.17,-0.62 -19.86,-1.95 -38.86,-7.71 -56.31,-17.13 -16.9,-9.11 -31.7,-21.26 -43.93,-36.06 -12.24,-14.8 -21.38,-31.62 -27.14,-49.92 -5.97,-18.93 -8.04,-38.63 -6.13,-58.49 3.51,-36.99 20.59,-71.03 48.07,-95.95 27.33,-24.69 62.62,-38.32 99.3,-38.32 4.75,0 9.5,0.23 14.25,0.7 19.86,1.87 38.86,7.63 56.31,17.06 16.9,9.11 31.62,21.26 43.92,36.06 12.23,14.88 21.34,31.62 27.11,49.92 5.99,19 8.02,38.71 6.15,58.57 -3.51,37 -20.56,71.03 -48.13,95.88 -27.26,24.77 -62.54,38.32 -99.3,38.32z"/>
   <path class="fil3" d="M56.83 503.82c10.81,58.96 50.49,130.07 115.84,207.25 39.64,46.73 78.97,84.11 99.14,102.42 16.13,-9.97 43.23,-27.26 74.07,-49.85 71.65,-52.49 163.55,-132.64 194.48,-216.75l0.31 -0.85 0.39 -0.86c6,-13.4 9.74,-27.65 11.14,-42.45 0.15,-1.01 0.23,-2.1 0.31,-3.12 5.14,-72.04 -49.14,-136.22 -121.11,-143.07 -4.28,-0.39 -8.57,-0.62 -12.85,-0.62 -32.17,0 -63.32,11.68 -87.77,32.87l-20.64 17.91 -16.9 -21.49c-22.9,-29.13 -55.84,-47.12 -92.76,-50.63 -4.29,-0.39 -8.63,-0.62 -12.9,-0.62 -69.42,0 -126.73,52.18 -133.32,121.42 -0.89,9.35 -0.8,18.85 0.26,28.12l2.32 20.33zm208.98 373.45l-13.86 -11.76c-2.33,-2.03 -59.24,-50.31 -118.5,-120.18 -35.06,-41.35 -63.64,-81.62 -84.95,-119.78 -27.44,-49.22 -42.96,-95.33 -46.15,-137.15l-2.35 -30.84 1.84 0.23c0.14,-2.49 0.32,-4.9 0.55,-7.32 4.41,-46.42 25.87,-89.17 60.43,-120.48 34.33,-30.99 78.65,-48.13 124.76,-48.13 5.92,0 11.92,0.31 17.8,0.85 25.86,2.49 50.31,10.05 72.82,22.59 14.25,7.87 27.26,17.52 38.86,28.74 30.06,-19.63 65.26,-30.22 101.48,-30.22 5.92,0 11.92,0.31 17.83,0.86 24.61,2.33 48.13,9.42 69.86,20.95 20.95,11.14 39.33,26.09 54.75,44.24 15.34,18.22 26.94,38.86 34.42,61.29 7.79,23.29 10.83,47.59 9.03,72.12 -0.08,1.48 -0.23,2.96 -0.39,4.44 -1.87,20.17 -7.01,39.64 -15.19,58.02 -16.2,43.77 -47.12,89.57 -91.82,136.22 -33.17,34.58 -73.68,69.55 -120.33,103.66 -52.5,38.4 -93.38,61.68 -95.1,62.69l-15.81 8.96z"/>
   <path class="fil0" d="M561.62 369.12c-1.72,-1.95 -3.31,-3.61 -5.77,-5.02 -20.25,2.65 -39.49,8.88 -57.25,18.53 9.52,12.63 20.53,24.79 33.02,35.52 10.05,-4.21 20.79,-7.01 31.93,-8.34 4.67,-0.54 9.5,-0.78 14.18,-0.78 2.96,0 5.92,0.08 8.8,0.31 0.67,-1.98 -0.95,-3.61 -1.37,-5.77 -2.59,-13.37 -11.28,-25.28 -23.54,-34.46z"/>
   <path class="fil4" d="M322.1 905.87l-5.58 31.83 -18.14 0 2.54 -21.43c-2.62,1.77 -4.79,4.39 -6.53,7.86 -1.73,3.47 -2.6,6.81 -2.6,10.02 0,3.72 1.82,7.44 5.45,11.16l7.73 7.86c2.7,3.3 4.06,6.64 4.06,10.02 0,6.93 -5.58,16.19 -16.74,27.77l-31.58 0c7.01,-6.17 11.75,-10.56 14.2,-13.19 4.74,-5.07 7.1,-9.3 7.1,-12.68 0,-2.54 -1.39,-5.45 -4.18,-8.75 -0.51,-0.59 -2.92,-3 -7.23,-7.23 -2.62,-3.47 -3.93,-7.14 -3.93,-11.04 0,-5.07 1.4,-10.19 4.19,-15.34 2.2,-4.05 4.44,-6.93 6.72,-8.62l23.59 0 0.63 -8.24 20.29 0zm55.03 2.67l-3.3 17.75 -17.88 0.63 -3.17 16.23 18.01 0.63 -2.79 14.96 -18.26 0.76 -2.79 14.71 18.13 1.77 -2.54 14.96 -38.16 0 6.72 -58.2 17.37 -5.58 -19.53 0.76 4.82 -19.4 43.37 0zm74.68 -0.13l-27.26 42.36 14.08 40.19 -21.81 0 -5.58 -22.82 -11.79 22.82 -20.16 0 23.97 -41.46 -12.94 -36.27 23.21 0 4.82 17.88 12.3 -22.7 21.17 0z"/>
   <path class="fil3" d="M518.95 908.36l-5.49 31.32 -17.85 0 2.5 -21.09c-2.58,1.75 -4.72,4.33 -6.43,7.74 -1.7,3.41 -2.56,6.69 -2.56,9.86 0,3.66 1.79,7.32 5.36,10.98l7.62 7.74c2.66,3.25 3.99,6.53 3.99,9.86 0,6.82 -5.49,15.93 -16.47,27.33l-31.07 0c6.9,-6.08 11.56,-10.4 13.97,-12.98 4.66,-4.99 6.99,-9.15 6.99,-12.48 0,-2.5 -1.37,-5.37 -4.12,-8.61 -0.5,-0.59 -2.87,-2.95 -7.11,-7.11 -2.58,-3.41 -3.87,-7.03 -3.87,-10.86 0,-4.99 1.37,-10.02 4.12,-15.1 2.17,-4 4.37,-6.82 6.62,-8.49l23.21 0 0.62 -8.11 19.97 0zm68.89 2.62l-14.23 81.11 -19.22 0 3.24 -30.07 -11.6 2.12 -5.37 27.95 -19.47 0 7.86 -77.87 23.71 0 -5.24 36.81 11.48 0.87 5.37 -40.93 23.46 0zm47.17 -4.87c10.56,10.4 15.85,22.29 15.85,35.69 0,16.31 -7.07,33.07 -21.21,50.29l-28.08 0c-7.15,-10.15 -10.73,-21.84 -10.73,-35.07 0,-6.49 1,-12.77 3,-18.84 2.25,-6.82 5.41,-12.27 9.48,-16.35l18.1 0c-3.08,-3.58 -7.24,-7.2 -12.48,-10.86l26.08 -4.87zm-12.48 17.59c-3,3.91 -5.57,10.19 -7.74,18.85 -1.83,7.49 -2.75,14.27 -2.75,20.34 0,8.24 1.42,15.35 4.25,21.34 2.99,-4.74 5.7,-10.44 8.11,-17.1 3.49,-9.4 5.24,-17.84 5.24,-25.33 0,-8.16 -2.37,-14.18 -7.11,-18.1zm94.34 3.37c0,7.82 -1.58,15.31 -4.74,22.46 -2.41,5.49 -6.48,12.02 -12.23,19.59l-20.96 0 -4.24 22.96 -19.84 0 8.86 -73.25 22.21 0c-1.83,-1.33 -5.99,-3.95 -12.48,-7.86l26.83 -6.24c4.16,2 7.86,5.08 11.11,9.24 3.66,4.58 5.49,8.94 5.49,13.1zm-29.82 -7.24l-7.61 45.92c10.23,-11.73 15.35,-22.13 15.35,-31.19 0,-6.08 -2.58,-10.98 -7.74,-14.73z"/>
  </g>
 </g>
</svg>
